<?xml version="1.0" standalone="no"?>
<!DOCTYPE svg PUBLIC "-//W3C//DTD SVG 20010904//EN"
 "http://www.w3.org/TR/2001/REC-SVG-20010904/DTD/svg10.dtd">
<svg version="1.0" xmlns="http://www.w3.org/2000/svg"
 width="4167.000000pt" height="4167.000000pt" viewBox="0 0 4167.000000 4167.000000"
 preserveAspectRatio="xMidYMid meet">
<g transform="translate(0.000000,4167.000000) scale(0.100000,-0.100000)">
<path d="M23450 40503 c-2718 -21 -5296 -414 -7520 -1146 -2433 -801 -4555
-2029 -6340 -3666 -396 -364 -849 -822 -1191 -1206 -765 -859 -1424 -1780
-1997 -2790 -313 -553 -633 -1211 -877 -1805 -98 -238 -119 -292 -217 -550
-578 -1529 -973 -3276 -1157 -5120 -95 -944 -133 -1805 -125 -2835 12 -1687
146 -3072 449 -4620 85 -439 263 -1170 387 -1590 531 -1806 1229 -3322 2193
-4760 1703 -2541 4096 -4555 6950 -5848 2414 -1093 5147 -1706 8290 -1857 531
-25 980 -32 1715 -27 742 6 893 10 1445 42 3151 185 6091 916 8870 2206 263
122 914 449 1185 595 278 150 629 349 938 533 l222 132 0 2579 c0 1419 -3
2580 -6 2580 -3 0 -90 -69 -192 -153 -103 -83 -232 -188 -287 -231 -55 -44
-129 -103 -165 -132 -55 -44 -221 -168 -545 -409 -208 -155 -774 -542 -1025
-701 -488 -309 -880 -538 -1330 -779 -165 -88 -754 -385 -764 -385 -3 0 29 52
70 116 961 1481 1863 3235 2556 4974 775 1943 1373 4066 1733 6150 19 113 38
215 40 227 l5 23 -9075 0 c-4991 0 -9075 -2 -9075 -4 0 -2 -34 -284 -75 -627
-164 -1370 -326 -2733 -351 -2946 l-6 -53 7461 0 c4103 0 7461 -2 7461 -4 0
-10 -145 -444 -220 -656 -575 -1642 -1333 -3231 -2193 -4600 -36 -58 -83 -132
-103 -165 -43 -68 -315 -478 -367 -552 -18 -26 -71 -102 -117 -168 -200 -287
-537 -732 -784 -1035 -545 -666 -1173 -1323 -1791 -1870 -156 -139 -416 -357
-500 -421 -5 -4 -116 -21 -245 -38 -557 -73 -1030 -115 -1700 -151 -549 -30
-1630 -22 -2295 15 -2697 154 -4988 780 -6870 1878 -1402 817 -2578 1893
-3507 3207 -366 518 -655 1003 -950 1592 -70 141 -128 259 -128 261 0 3 -24
56 -54 118 -67 143 -137 302 -222 511 -666 1628 -1066 3509 -1199 5628 -35
565 -40 775 -40 1615 0 840 5 1028 40 1605 195 3137 971 5730 2330 7785 451
682 877 1203 1480 1810 810 815 1812 1535 2900 2085 1779 898 3848 1405 6290
1540 604 33 1742 39 2255 11 1715 -94 3177 -344 4673 -801 1924 -587 3689
-1456 5422 -2670 148 -104 545 -394 641 -469 40 -31 107 -83 150 -116 124 -96
379 -300 527 -422 74 -62 138 -113 141 -113 3 0 6 1172 6 2605 l0 2604 -232
139 c-635 378 -1312 741 -1903 1019 -491 231 -827 378 -1295 565 -1570 628
-3395 1129 -5122 1407 -1489 240 -2982 347 -4668 334z"/>
</g>
</svg>
